<svg width="56" height="56" viewBox="0 0 56 56" fill="none" xmlns="http://www.w3.org/2000/svg">
<rect width="56" height="56" rx="16" fill="#21201F"/>
<path d="M39.019 15.0001C36.3017 15.0001 34.0379 17.2584 34.0379 19.9692C34.0379 22.2275 35.5465 24.0351 37.5095 24.6376V33.6735C37.5095 35.7809 35.8491 37.4376 33.7362 37.4376C31.6224 37.4376 29.9621 35.7809 29.9621 33.6735V21.6259C29.9621 18.0118 26.9431 15.0001 23.1698 15.0001C22.2778 14.9953 21.3936 15.1671 20.5683 15.5058C19.743 15.8444 18.993 16.3431 18.3614 16.9732C17.7299 17.6032 17.2293 18.352 16.8887 19.1765C16.548 20.001 16.374 20.8847 16.3767 21.7768V26.2934H19.3966V21.7768C19.3966 19.6684 21.0569 18.0118 23.1698 18.0118C25.2827 18.0118 26.9431 19.6684 26.9431 21.7768V33.8234C26.9404 34.7155 27.1144 35.5992 27.4551 36.4237C27.7957 37.2482 28.2963 37.997 28.9278 38.627C29.5594 39.2571 30.3094 39.7558 31.1347 40.0944C31.96 40.4331 32.8442 40.6049 33.7362 40.6001C34.6282 40.6048 35.5123 40.4329 36.3375 40.0942C37.1627 39.7555 37.9126 39.2567 38.5441 38.6267C39.1755 37.9967 39.676 37.2479 40.0166 36.4235C40.3571 35.5991 40.5311 34.7154 40.5285 33.8234V24.7884C42.4905 24.1859 44 22.2284 44 20.1201C44 17.2584 41.7362 15.0001 39.019 15.0001ZM39.019 22.0776C37.9621 22.0776 37.0569 21.1743 37.0569 20.1201C37.0569 19.0659 37.9621 18.1626 39.019 18.1626C40.075 18.1626 40.981 19.0659 40.981 20.1201C40.981 21.1743 40.0759 22.0776 39.019 22.0776ZM16.3776 29.0051L12 38.0401L13.2069 39.9976L17.8871 38.7926L22.5664 39.9976L23.7733 38.0401L19.3966 29.0051H16.3776ZM18.4905 36.3834L17.8871 36.2326L17.2837 36.3834L15.4715 36.8351L17.8871 31.8659L20.3017 36.8351L18.4914 36.3834H18.4905Z" fill="white"/>
</svg>
