<svg width="56" height="56" viewBox="0 0 56 56" fill="none" xmlns="http://www.w3.org/2000/svg">
<rect width="56" height="56" rx="16" fill="#21201F"/>
<path d="M34.96 21.6L27.728 34.4H30.848L38.08 21.6H34.96ZM29.824 24.8C30.2483 24.8 30.6553 24.6314 30.9554 24.3314C31.2554 24.0313 31.424 23.6243 31.424 23.2C31.424 22.7757 31.2554 22.3687 30.9554 22.0686C30.6553 21.7686 30.2483 21.6 29.824 21.6C29.3997 21.6 28.9927 21.7686 28.6926 22.0686C28.3926 22.3687 28.224 22.7757 28.224 23.2C28.224 23.6243 28.3926 24.0313 28.6926 24.3314C28.9927 24.6314 29.3997 24.8 29.824 24.8ZM36 31.088C35.5757 31.088 35.1687 31.2566 34.8686 31.5566C34.5686 31.8567 34.4 32.2637 34.4 32.688C34.4 33.1123 34.5686 33.5193 34.8686 33.8194C35.1687 34.1194 35.5757 34.288 36 34.288C36.4243 34.288 36.8313 34.1194 37.1314 33.8194C37.4314 33.5193 37.6 33.1123 37.6 32.688C37.6 32.2637 37.4314 31.8567 37.1314 31.5566C36.8313 31.2566 36.4243 31.088 36 31.088ZM28 12C23.7565 12 19.6869 13.6857 16.6863 16.6863C13.6857 19.6869 12 23.7565 12 28C12 32.2435 13.6857 36.3131 16.6863 39.3137C19.6869 42.3143 23.7565 44 28 44C32.2435 44 36.3131 42.3143 39.3137 39.3137C42.3143 36.3131 44 32.2435 44 28C44 23.7565 42.3143 19.6869 39.3137 16.6863C36.3131 13.6857 32.2435 12 28 12ZM28 40.8C24.6052 40.8 21.3495 39.4514 18.949 37.051C16.5486 34.6505 15.2 31.3948 15.2 28C15.2 24.6052 16.5486 21.3495 18.949 18.949C21.3495 16.5486 24.6052 15.2 28 15.2C31.3948 15.2 34.6505 16.5486 37.051 18.949C39.4514 21.3495 40.8 24.6052 40.8 28C40.8 31.3948 39.4514 34.6505 37.051 37.051C34.6505 39.4514 31.3948 40.8 28 40.8ZM22.624 21.328C22.0708 21.3238 21.5223 21.4291 21.01 21.6379C20.4977 21.8466 20.0318 22.1548 19.6391 22.5444C19.2464 22.9341 18.9348 23.3977 18.7221 23.9084C18.5095 24.4191 18.4 24.9668 18.4 25.52V30.544C18.4 31.6558 18.8417 32.722 19.6278 33.5082C20.414 34.2943 21.4802 34.736 22.592 34.736C23.7038 34.736 24.77 34.2943 25.5562 33.5082C26.3423 32.722 26.784 31.6558 26.784 30.544V25.52C26.784 24.4137 26.3468 23.3523 25.5675 22.5671C24.7883 21.7818 23.7302 21.3364 22.624 21.328ZM24.096 30.544C24.096 30.9344 23.9409 31.3088 23.6649 31.5849C23.3888 31.8609 23.0144 32.016 22.624 32.016C22.2336 32.016 21.8592 31.8609 21.5831 31.5849C21.3071 31.3088 21.152 30.9344 21.152 30.544V25.52C21.152 25.1296 21.3071 24.7552 21.5831 24.4791C21.8592 24.2031 22.2336 24.048 22.624 24.048C23.0144 24.048 23.3888 24.2031 23.6649 24.4791C23.9409 24.7552 24.096 25.1296 24.096 25.52V30.544Z" fill="white"/>
</svg>
