<svg width="56" height="56" viewBox="0 0 56 56" fill="none" xmlns="http://www.w3.org/2000/svg">
<rect width="56" height="56" rx="16" fill="#21201F"/>
<path d="M35.551 24.5632C37.8648 27.4303 40.2038 28.2729 41.084 28.3357L39.2602 20.7278L30.3947 14.5032H23.2899C10.7777 15.5092 12.0352 25.1918 12.0352 25.3806C12.0352 26.5124 13.4395 28.1471 14.173 28.713C14.0221 27.1537 17.4639 20.9584 19.2034 17.8984C21.0687 17.5212 25.2646 16.7667 27.1257 16.7667C29.4521 16.7667 32.6587 20.9793 35.551 24.5632Z" fill="white"/>
<path fill-rule="evenodd" clip-rule="evenodd" d="M28.3827 40.6591C34.9805 40.6591 40.329 35.3106 40.329 28.7128C40.329 22.1151 34.9805 16.7665 28.3827 16.7665C21.785 16.7665 16.4364 22.1151 16.4364 28.7128C16.4364 35.3106 21.785 40.6591 28.3827 40.6591ZM28.3827 43.4256C36.5084 43.4256 43.0956 36.8385 43.0956 28.7128C43.0956 20.5872 36.5084 14 28.3827 14C20.2571 14 13.6699 20.5872 13.6699 28.7128C13.6699 36.8385 20.2571 43.4256 28.3827 43.4256Z" fill="white"/>
</svg>
