<?xml version="1.0" encoding="utf-8"?>
<!-- Generator: Adobe Illustrator 27.2.0, SVG Export Plug-In . SVG Version: 6.00 Build 0)  -->
<svg version="1.1" id="Слой_1" xmlns="http://www.w3.org/2000/svg" xmlns:xlink="http://www.w3.org/1999/xlink" x="0px" y="0px"
	 viewBox="0 0 480 200" style="enable-background:new 0 0 480 200;" xml:space="preserve">
<style type="text/css">
	.st0{fill:url(#SVGID_1_);}
	.st1{fill:url(#SVGID_00000038386117452924503530000007135068197830629308_);}
	.st2{fill:url(#SVGID_00000142862128769347339600000006088928755779610502_);}
	.st3{fill:url(#SVGID_00000167375611062886027320000013783393070209200049_);}
	.st4{opacity:0.76;fill:url(#SVGID_00000157989969551624184370000005670533052326617531_);}
	.st5{opacity:0.76;fill:url(#SVGID_00000116926768998904902660000004559482267457996716_);}
	.st6{fill:url(#SVGID_00000124864161912949179360000009352793519354752907_);}
	.st7{opacity:0.76;fill:url(#SVGID_00000080202408107298622290000010975323676314488705_);}
	.st8{fill:#020203;}
</style>
<g>
	<g>
		<g>
			<g>
				<g>
					
						<linearGradient id="SVGID_1_" gradientUnits="userSpaceOnUse" x1="4301.999" y1="34.9137" x2="4330.2173" y2="91.7372" gradientTransform="matrix(-1 0 0 1 4546.0234 0)">
						<stop  offset="0.3577" style="stop-color:#2FA8DF"/>
						<stop  offset="0.5311" style="stop-color:#3082C4"/>
						<stop  offset="0.6663" style="stop-color:#3568B0"/>
						<stop  offset="0.735" style="stop-color:#375EA9"/>
						<stop  offset="0.8327" style="stop-color:#4758A4"/>
						<stop  offset="1" style="stop-color:#634797"/>
					</linearGradient>
					<path class="st0" d="M206.12,97.95c-0.02,2.01-0.26,4.04,0.24,6.04c0.03,1.57,0.26,3.17,0.67,4.81
						c5.73-9.66,15.92-13.33,16.1-13.42c-0.22-2.44-1.49-11.6-8.51-16.65c-0.02,0.01-0.02,0.05-0.04,0.06
						c-0.06,0.04-0.08,0.07-0.06,0.09c0.14,0.27-0.22,0.6-0.45,0.84c-1.14,1.19-2.06,2.56-3,3.9c-0.56,0.8-0.96,1.69-1.49,2.51
						c-1.2,1.88-1.93,3.97-2.57,6.04C206.45,94.02,206.13,95.99,206.12,97.95z"/>
					
						<linearGradient id="SVGID_00000155133453120661715640000002502645830121684661_" gradientUnits="userSpaceOnUse" x1="4314.9609" y1="28.5006" x2="4343.1724" y2="85.3101" gradientTransform="matrix(-1 0 0 1 4546.0234 0)">
						<stop  offset="0.3577" style="stop-color:#2FA8DF"/>
						<stop  offset="0.5311" style="stop-color:#3082C4"/>
						<stop  offset="0.6663" style="stop-color:#3568B0"/>
						<stop  offset="0.735" style="stop-color:#375EA9"/>
						<stop  offset="0.8327" style="stop-color:#4758A4"/>
						<stop  offset="1" style="stop-color:#634797"/>
					</linearGradient>
					<path style="fill:url(#SVGID_00000155133453120661715640000002502645830121684661_);" d="M186.17,21
						c0,0,5.66,18.18,12.72,32.13c3.13,1.14,6.44,2.72,9.87,4.89c4.3,2.7,7.5,5.7,9.87,8.77c2.89,3.72,4.55,7.57,5.42,11.22
						c1.95,8.01,0.13,14.98-0.61,17.27c0.76-0.45,1.38-0.79,1.65-0.95c0.84-0.47,1.69-1,2.55-1.45c1.69-0.9,3.25-2.01,4.87-3.01
						c1.01-0.62,1.91-1.38,2.85-2.1c1-0.75,1.98-1.55,2.84-2.47c1.23-1.36,2.43-2.77,3.19-4.48c0.51-1.16,1.12-2.32,1.24-3.62
						c0.21-2.3,0.58-4.6-0.03-6.9c-0.11-0.39-0.17-0.8-0.24-1.19c-0.2-0.92-0.57-1.83-0.54-2.81c0.03-1.41,0.67-2.63,1.19-3.89
						c0.1-0.23,0.22-0.48,0.37-0.67c1.55-1.61,3.36-2.89,5.3-3.93c0.36-0.2,0.73-0.38,1.1-0.54c0.05-0.03,0.1-0.03,0.17-0.06
						c0.85-0.39,1.71-0.7,2.59-0.95c0.19-0.06,0.39-0.11,0.59-0.18c4.45-1.73,13.76-3.05,13.76-3.05s2.73-2.07,0.4-1.66
						c-2.33,0.41-14.49,2.88-14.49,2.88c-1.63,0.2-3.26,0.25-4.88-0.11c-0.96-0.22-1.96-0.24-2.88-0.64
						c-1.79-0.76-3.58-1.35-5.54-1.49c-2.09-0.15-3.94,0.37-5.66,1.44c-0.58,0.36-1.23,0.68-1.62,1.21c-0.51,0.7-1.11,1.31-1.6,2.03
						c-0.85,1.23-1.81,2.35-1.97,3.93c0,0.1-0.08,0.19-0.11,0.28c-0.6,1.45-1.22,2.9-1.43,4.45c-0.08,0.57-0.21,1.13-0.33,1.67
						c-0.68-8.49-3.67-22.32-15.42-31.69C193.33,20.94,186.17,21,186.17,21z"/>
					
						<linearGradient id="SVGID_00000151520379832014660570000018208318709626580377_" gradientUnits="userSpaceOnUse" x1="4346.0537" y1="89.2768" x2="4354.5571" y2="43.6658" gradientTransform="matrix(-1 0 0 1 4546.0234 0)">
						<stop  offset="0.3577" style="stop-color:#2FA8DF"/>
						<stop  offset="0.5311" style="stop-color:#3082C4"/>
						<stop  offset="0.6663" style="stop-color:#3568B0"/>
						<stop  offset="0.735" style="stop-color:#375EA9"/>
						<stop  offset="0.8327" style="stop-color:#4758A4"/>
						<stop  offset="1" style="stop-color:#634797"/>
					</linearGradient>
					<path style="fill:url(#SVGID_00000151520379832014660570000018208318709626580377_);" d="M167.43,55.36
						c0,0,13.79,21.05,34.38,20.02c5.63-0.29,9.76,1.13,12.81,3.35c7.01,5.05,8.29,14.21,8.51,16.65c0.11-0.07,0.2-0.04,0.31-0.09
						c0.73-2.29,2.56-9.25,0.61-17.27c-0.87-3.65-2.53-7.5-5.42-11.22c-2.37-3.07-5.57-6.07-9.87-8.77
						c-3.43-2.17-6.74-3.76-9.87-4.89C180.4,46.44,167.43,55.36,167.43,55.36z"/>
					
						<linearGradient id="SVGID_00000018942421235391733020000016265288458946971051_" gradientUnits="userSpaceOnUse" x1="4287.3462" y1="42.2146" x2="4315.5503" y2="99.0087" gradientTransform="matrix(-1 0 0 1 4546.0234 0)">
						<stop  offset="0.3577" style="stop-color:#2FA8DF"/>
						<stop  offset="0.5311" style="stop-color:#3082C4"/>
						<stop  offset="0.6663" style="stop-color:#3568B0"/>
						<stop  offset="0.735" style="stop-color:#375EA9"/>
						<stop  offset="0.8327" style="stop-color:#4758A4"/>
						<stop  offset="1" style="stop-color:#634797"/>
					</linearGradient>
					<path style="fill:url(#SVGID_00000018942421235391733020000016265288458946971051_);" d="M249.93,57.2
						c0.98-0.32,2.06-0.71,3.17-1.13c-0.19,0.07-0.4,0.13-0.59,0.18C251.64,56.5,250.78,56.81,249.93,57.2z"/>
					
						<radialGradient id="SVGID_00000142162235825626174430000000014744760480302998_" cx="198.0558" cy="87.277" r="23.4153" gradientTransform="matrix(0.9982 0 0 0.9993 0.4418 0.0698)" gradientUnits="userSpaceOnUse">
						<stop  offset="0.6924" style="stop-color:#171029;stop-opacity:0"/>
						<stop  offset="0.9742" style="stop-color:#171029;stop-opacity:0.6414"/>
						<stop  offset="1" style="stop-color:#171029;stop-opacity:0.7"/>
					</radialGradient>
					<path style="opacity:0.76;fill:url(#SVGID_00000142162235825626174430000000014744760480302998_);" d="M206.12,97.95
						c-0.02,2.01-0.26,4.04,0.24,6.04c0.03,1.57,0.26,3.17,0.67,4.81c5.73-9.66,15.92-13.33,16.1-13.42
						c-0.22-2.44-1.49-11.6-8.51-16.65c-0.02,0.01-0.02,0.05-0.04,0.06c-0.06,0.04-0.08,0.07-0.06,0.09
						c0.14,0.27-0.22,0.6-0.45,0.84c-1.14,1.19-2.06,2.56-3,3.9c-0.56,0.8-0.96,1.69-1.49,2.51c-1.2,1.88-1.93,3.97-2.57,6.04
						C206.45,94.02,206.13,95.99,206.12,97.95z"/>
					
						<radialGradient id="SVGID_00000008107128386435680100000000026719013506151824_" cx="247.9285" cy="50.95" r="52.2675" gradientTransform="matrix(0.9982 0 0 0.9993 0.4418 0.0698)" gradientUnits="userSpaceOnUse">
						<stop  offset="0.3447" style="stop-color:#171029;stop-opacity:0"/>
						<stop  offset="0.9451" style="stop-color:#171029;stop-opacity:0.6414"/>
						<stop  offset="1" style="stop-color:#171029;stop-opacity:0.7"/>
					</radialGradient>
					<path style="opacity:0.76;fill:url(#SVGID_00000008107128386435680100000000026719013506151824_);" d="M186.17,21
						c0,0,5.66,18.18,12.72,32.13c3.13,1.14,6.44,2.72,9.87,4.89c4.3,2.7,7.5,5.7,9.87,8.77c2.89,3.72,4.55,7.57,5.42,11.22
						c1.95,8.01,0.13,14.98-0.61,17.27c0.76-0.45,1.38-0.79,1.65-0.95c0.84-0.47,1.69-1,2.55-1.45c1.69-0.9,3.25-2.01,4.87-3.01
						c1.01-0.62,1.91-1.38,2.85-2.1c1-0.75,1.98-1.55,2.84-2.47c1.23-1.36,2.43-2.77,3.19-4.48c0.51-1.16,1.12-2.32,1.24-3.62
						c0.21-2.3,0.58-4.6-0.03-6.9c-0.11-0.39-0.17-0.8-0.24-1.19c-0.2-0.92-0.57-1.83-0.54-2.81c0.03-1.41,0.67-2.63,1.19-3.89
						c0.1-0.23,0.22-0.48,0.37-0.67c1.55-1.61,3.36-2.89,5.3-3.93c0.36-0.2,0.73-0.38,1.1-0.54c0.05-0.03,0.1-0.03,0.17-0.06
						c0.85-0.39,1.71-0.7,2.59-0.95c0.19-0.06,0.39-0.11,0.59-0.18c4.45-1.73,13.76-3.05,13.76-3.05s2.73-2.07,0.4-1.66
						c-2.33,0.41-14.49,2.88-14.49,2.88c-1.63,0.2-3.26,0.25-4.88-0.11c-0.96-0.22-1.96-0.24-2.88-0.64
						c-1.79-0.76-3.58-1.35-5.54-1.49c-2.09-0.15-3.94,0.37-5.66,1.44c-0.58,0.36-1.23,0.68-1.62,1.21c-0.51,0.7-1.11,1.31-1.6,2.03
						c-0.85,1.23-1.81,2.35-1.97,3.93c0,0.1-0.08,0.19-0.11,0.28c-0.6,1.45-1.22,2.9-1.43,4.45c-0.08,0.57-0.21,1.13-0.33,1.67
						c-0.68-8.49-3.67-22.32-15.42-31.69C193.33,20.94,186.17,21,186.17,21z"/>
				</g>
			</g>
		</g>
		
			<linearGradient id="SVGID_00000071544523745851070050000004128106327147780239_" gradientUnits="userSpaceOnUse" x1="4346.0996" y1="110.8485" x2="4306.543" y2="147.4197" gradientTransform="matrix(-1 0 0 1 4546.0234 0)">
			<stop  offset="0.3577" style="stop-color:#2FA8DF"/>
			<stop  offset="0.5311" style="stop-color:#3082C4"/>
			<stop  offset="0.6663" style="stop-color:#3568B0"/>
			<stop  offset="0.735" style="stop-color:#375EA9"/>
			<stop  offset="0.8327" style="stop-color:#4758A4"/>
			<stop  offset="1" style="stop-color:#634797"/>
		</linearGradient>
		<path style="fill:url(#SVGID_00000071544523745851070050000004128106327147780239_);" d="M204.3,134.1
			c3.98,27.61,24.79,33.23,24.79,33.23s3.59-12.27,0.51-24.77c-0.28-1.16-0.63-2.33-1.02-3.49c-1.37-3.85-3.46-7.61-6.58-10.93
			c-12.92-13.74-0.6-26.56,1.61-28.77c0.15-0.16-9.8,2.74-15.52,12.41C204.9,117.13,202.9,124.42,204.3,134.1z"/>
		
			<linearGradient id="SVGID_00000177467028875177366910000011257622619342822045_" gradientUnits="userSpaceOnUse" x1="199.5343" y1="107.577" x2="241.7719" y2="152.6782">
			<stop  offset="0.0918" style="stop-color:#171029;stop-opacity:0"/>
			<stop  offset="0.9239" style="stop-color:#171029;stop-opacity:0.6414"/>
			<stop  offset="1" style="stop-color:#171029;stop-opacity:0.7"/>
		</linearGradient>
		<path style="opacity:0.76;fill:url(#SVGID_00000177467028875177366910000011257622619342822045_);" d="M204.3,134.1
			c3.98,27.61,24.79,33.23,24.79,33.23s3.59-12.27,0.51-24.77c-0.28-1.16-0.63-2.33-1.02-3.49c-1.37-3.85-3.46-7.61-6.58-10.93
			c-12.92-13.74-0.6-26.56,1.61-28.77c0.15-0.16-9.8,2.74-15.52,12.41C204.9,117.13,202.9,124.42,204.3,134.1z"/>
	</g>
	<g>
		<g>
			<g>
				<g>
					<path class="st8" d="M55.15,169c-7.66,0-14.77-1.28-21.31-3.84c-6.54-2.55-12.21-6.26-17.01-11.12
						c-4.8-4.86-8.56-10.79-11.26-17.8c-2.71-7.01-4.06-14.91-4.06-23.71c0-8.9,1.25-16.83,3.76-23.79
						c2.5-6.95,6.08-12.86,10.73-17.72c4.65-4.86,10.27-8.57,16.86-11.12c6.59-2.56,13.92-3.84,22-3.84
						c7.15,0,13.41,0.82,18.78,2.46c5.37,1.64,9.73,3.48,13.11,5.52l-2.3,14.12c-3.99-2.86-8.48-5.09-13.49-6.68
						c-5.01-1.59-10.42-2.38-16.25-2.38c-11.86,0-21.08,3.61-27.67,10.82S17.13,98,17.13,112.53s3.55,25.39,10.65,32.61
						c7.1,7.21,16.63,10.82,28.59,10.82c5.21,0,9.91-0.77,14.1-2.3c4.19-1.53,8.28-3.58,12.26-6.14l3.99,12.12
						c-2.96,2.36-7.13,4.5-12.49,6.44C68.87,168.03,62.5,169,55.15,169z"/>
					<path class="st8" d="M145.89,169c-5.42,0-10.48-0.92-15.18-2.76c-4.7-1.84-8.76-4.53-12.18-8.06
						c-3.43-3.53-6.11-7.85-8.05-12.97c-1.94-5.12-2.91-11-2.91-17.65c0-6.55,0.97-12.4,2.91-17.57c1.94-5.17,4.62-9.49,8.05-12.97
						c3.42-3.48,7.48-6.14,12.18-7.98c4.7-1.84,9.76-2.76,15.18-2.76c5.52,0,10.63,0.92,15.33,2.76c4.7,1.84,8.76,4.5,12.18,7.98
						c3.42,3.48,6.13,7.8,8.12,12.97c1.99,5.17,2.99,11.02,2.99,17.57c0,6.65-1,12.53-2.99,17.65c-1.99,5.12-4.7,9.44-8.12,12.97
						c-3.43,3.53-7.49,6.21-12.18,8.06C156.52,168.08,151.41,169,145.89,169z M145.89,157.03c3.58,0,6.9-0.59,9.96-1.77
						c3.07-1.18,5.7-2.98,7.89-5.39c2.2-2.41,3.93-5.46,5.21-9.16c1.27-3.69,1.91-8.05,1.91-13.08c0-5.03-0.64-9.39-1.91-13.08
						c-1.28-3.69-3.02-6.74-5.21-9.15c-2.2-2.41-4.83-4.21-7.89-5.39c-3.07-1.18-6.39-1.77-9.96-1.77c-3.58,0-6.85,0.59-9.81,1.77
						c-2.96,1.18-5.54,2.98-7.74,5.39c-2.2,2.41-3.91,5.46-5.13,9.15c-1.23,3.69-1.84,8.05-1.84,13.08c0,5.02,0.61,9.38,1.84,13.08
						c1.23,3.69,2.93,6.75,5.13,9.16c2.2,2.41,4.78,4.21,7.74,5.39C139.04,156.44,142.31,157.03,145.89,157.03z"/>
					<path class="st8" d="M268.21,87.82v79.64h-13.49V87.82H268.21z"/>
					<path class="st8" d="M339.33,169c-6.13,0-11.47-1.46-16.02-4.37c-4.55-2.91-8.15-6.98-10.81-12.2l-0.46,15.04h-12.72V57.6
						h13.49v45.11c2.66-5.01,6.23-9,10.73-11.97c4.5-2.97,9.96-4.45,16.4-4.45c4.6,0,9.02,0.85,13.26,2.53
						c4.24,1.69,7.97,4.25,11.19,7.67c3.22,3.43,5.77,7.73,7.67,12.89c1.89,5.17,2.83,11.23,2.83,18.18
						c0,7.06-0.97,13.17-2.91,18.34c-1.94,5.17-4.55,9.46-7.82,12.89c-3.27,3.43-7.05,5.99-11.34,7.67
						C348.53,168.16,344.03,169,339.33,169z M337.33,157.03c7.05,0,12.75-2.44,17.09-7.31c4.34-4.87,6.51-12.23,6.51-22.08
						c0-9.64-2.17-16.95-6.51-21.92c-4.34-4.97-10.04-7.46-17.09-7.46c-3.48,0-6.72,0.62-9.73,1.84c-3.01,1.23-5.62,3.05-7.82,5.46
						c-2.2,2.41-3.94,5.46-5.21,9.16c-1.28,3.69-1.91,8-1.91,12.92s0.64,9.23,1.91,12.92c1.28,3.69,3.01,6.77,5.21,9.23
						c2.2,2.46,4.8,4.28,7.82,5.46C330.62,156.44,333.86,157.03,337.33,157.03z"/>
					<path class="st8" d="M424.63,105.7c-4.65,2.4-8.1,6.11-10.35,11.12v50.64h-13.49V87.82h11.96l1.23,17.34h0.31
						c2.25-4.7,5.49-8.82,9.73-12.35c4.24-3.53,9.63-5.7,16.17-6.52v15.04C434.46,101.84,429.28,103.3,424.63,105.7z"/>
					<path class="st8" d="M471.92,76.16c-2.66,0-4.83-0.84-6.51-2.53c-1.69-1.69-2.53-3.76-2.53-6.21c0-2.35,0.84-4.42,2.53-6.21
						c1.68-1.79,3.85-2.68,6.51-2.68c2.65,0,4.75,0.9,6.28,2.68c1.53,1.79,2.3,3.86,2.3,6.21c0,2.46-0.77,4.53-2.3,6.21
						C476.67,75.32,474.57,76.16,471.92,76.16z M478.51,87.82v79.64h-13.49V87.82H478.51z"/>
				</g>
			</g>
		</g>
	</g>
</g>
</svg>
